<svg width="204" height="65" viewBox="0 0 204 65" fill="none" xmlns="http://www.w3.org/2000/svg">
<path d="M55 41C55 47.3652 60.0044 53.4697 68.9124 57.9706C77.8204 62.4714 89.9022 65 102.5 65C115.098 65 127.18 62.4714 136.088 57.9706C144.996 53.4697 150 47.3652 150 41L55 41Z" fill="url(#paint0_linear_13_337)"/>
<path d="M4.9668 6.19824V14.6064H9.1709C9.74707 14.6064 10.2891 14.499 10.7969 14.2842C11.3047 14.0596 11.749 13.7568 12.1299 13.376C12.5107 12.9951 12.8086 12.5508 13.0234 12.043C13.248 11.5254 13.3604 10.9785 13.3604 10.4023C13.3604 9.82617 13.248 9.28418 13.0234 8.77637C12.8086 8.25879 12.5107 7.80957 12.1299 7.42871C11.749 7.04785 11.3047 6.75 10.7969 6.53516C10.2891 6.31055 9.74707 6.19824 9.1709 6.19824H4.9668ZM4.9668 23H0.762695V1.99414H9.1709C9.94238 1.99414 10.6846 2.09668 11.3975 2.30176C12.1104 2.49707 12.7744 2.78027 13.3896 3.15137C14.0146 3.5127 14.5811 3.95215 15.0889 4.46973C15.6064 4.97754 16.0459 5.54395 16.4072 6.16895C16.7783 6.79395 17.0615 7.46289 17.2568 8.17578C17.4619 8.88867 17.5645 9.63086 17.5645 10.4023C17.5645 11.125 17.4717 11.8281 17.2861 12.5117C17.1104 13.1953 16.8516 13.8447 16.5098 14.46C16.1777 15.0752 15.7676 15.6416 15.2793 16.1592C14.791 16.6768 14.2441 17.126 13.6387 17.5068L15.9678 23H11.5L9.66895 18.7666L4.9668 18.7959V23Z" fill="#006EE9"/>
<path d="M34.8936 15.0166C34.8936 16.1885 34.6836 17.2822 34.2637 18.2979C33.8438 19.3037 33.2725 20.1777 32.5498 20.9199C31.8271 21.6523 30.9775 22.2334 30.001 22.6631C29.0342 23.083 27.9941 23.293 26.8809 23.293C25.7773 23.293 24.7373 23.083 23.7607 22.6631C22.7939 22.2334 21.9443 21.6523 21.2119 20.9199C20.4893 20.1777 19.918 19.3037 19.498 18.2979C19.0781 17.2822 18.8682 16.1885 18.8682 15.0166C18.8682 13.8252 19.0781 12.7217 19.498 11.7061C19.918 10.6904 20.4893 9.81641 21.2119 9.08398C21.9443 8.3418 22.7939 7.76074 23.7607 7.34082C24.7373 6.9209 25.7773 6.71094 26.8809 6.71094C27.9941 6.71094 29.0342 6.91113 30.001 7.31152C30.9775 7.70215 31.8271 8.26367 32.5498 8.99609C33.2725 9.71875 33.8438 10.5928 34.2637 11.6182C34.6836 12.6338 34.8936 13.7666 34.8936 15.0166ZM30.8652 15.0166C30.8652 14.3721 30.7578 13.791 30.543 13.2734C30.3379 12.7461 30.0547 12.2969 29.6934 11.9258C29.332 11.5449 28.9072 11.2568 28.4189 11.0615C27.9404 10.8564 27.4277 10.7539 26.8809 10.7539C26.334 10.7539 25.8164 10.8564 25.3281 11.0615C24.8496 11.2568 24.4297 11.5449 24.0684 11.9258C23.7168 12.2969 23.4385 12.7461 23.2334 13.2734C23.0283 13.791 22.9258 14.3721 22.9258 15.0166C22.9258 15.6221 23.0283 16.1836 23.2334 16.7012C23.4385 17.2188 23.7168 17.668 24.0684 18.0488C24.4297 18.4297 24.8496 18.7324 25.3281 18.957C25.8164 19.1719 26.334 19.2793 26.8809 19.2793C27.4277 19.2793 27.9404 19.1768 28.4189 18.9717C28.9072 18.7666 29.332 18.4785 29.6934 18.1074C30.0547 17.7363 30.3379 17.2871 30.543 16.7598C30.7578 16.2324 30.8652 15.6514 30.8652 15.0166Z" fill="#006EE9"/>
<path d="M52.2666 15.0166C52.2666 16.1885 52.0566 17.2822 51.6367 18.2979C51.2168 19.3037 50.6455 20.1777 49.9229 20.9199C49.2002 21.6523 48.3506 22.2334 47.374 22.6631C46.4072 23.083 45.3672 23.293 44.2539 23.293C43.1504 23.293 42.1104 23.083 41.1338 22.6631C40.167 22.2334 39.3174 21.6523 38.585 20.9199C37.8623 20.1777 37.291 19.3037 36.8711 18.2979C36.4512 17.2822 36.2412 16.1885 36.2412 15.0166C36.2412 13.8252 36.4512 12.7217 36.8711 11.7061C37.291 10.6904 37.8623 9.81641 38.585 9.08398C39.3174 8.3418 40.167 7.76074 41.1338 7.34082C42.1104 6.9209 43.1504 6.71094 44.2539 6.71094C45.3672 6.71094 46.4072 6.91113 47.374 7.31152C48.3506 7.70215 49.2002 8.26367 49.9229 8.99609C50.6455 9.71875 51.2168 10.5928 51.6367 11.6182C52.0566 12.6338 52.2666 13.7666 52.2666 15.0166ZM48.2383 15.0166C48.2383 14.3721 48.1309 13.791 47.916 13.2734C47.7109 12.7461 47.4277 12.2969 47.0664 11.9258C46.7051 11.5449 46.2803 11.2568 45.792 11.0615C45.3135 10.8564 44.8008 10.7539 44.2539 10.7539C43.707 10.7539 43.1895 10.8564 42.7012 11.0615C42.2227 11.2568 41.8027 11.5449 41.4414 11.9258C41.0898 12.2969 40.8115 12.7461 40.6064 13.2734C40.4014 13.791 40.2988 14.3721 40.2988 15.0166C40.2988 15.6221 40.4014 16.1836 40.6064 16.7012C40.8115 17.2188 41.0898 17.668 41.4414 18.0488C41.8027 18.4297 42.2227 18.7324 42.7012 18.957C43.1895 19.1719 43.707 19.2793 44.2539 19.2793C44.8008 19.2793 45.3135 19.1768 45.792 18.9717C46.2803 18.7666 46.7051 18.4785 47.0664 18.1074C47.4277 17.7363 47.7109 17.2871 47.916 16.7598C48.1309 16.2324 48.2383 15.6514 48.2383 15.0166Z" fill="#006EE9"/>
<path d="M74.4297 23H70.4453V13.0391C70.4453 12.7656 70.3916 12.5068 70.2842 12.2627C70.1865 12.0186 70.0449 11.8037 69.8594 11.6182C69.6738 11.4326 69.459 11.291 69.2148 11.1934C68.9707 11.0859 68.7119 11.0322 68.4385 11.0322C68.165 11.0322 67.9062 11.0859 67.6621 11.1934C67.4277 11.291 67.2178 11.4326 67.0322 11.6182C66.8564 11.8037 66.7148 12.0186 66.6074 12.2627C66.5098 12.5068 66.4609 12.7656 66.4609 13.0391V23H62.4619V13.0391C62.4619 12.7656 62.4082 12.5068 62.3008 12.2627C62.2031 12.0186 62.0615 11.8037 61.876 11.6182C61.6904 11.4326 61.4756 11.291 61.2314 11.1934C60.9873 11.0859 60.7285 11.0322 60.4551 11.0322C60.1816 11.0322 59.9229 11.0859 59.6787 11.1934C59.4443 11.291 59.2344 11.4326 59.0488 11.6182C58.873 11.8037 58.7314 12.0186 58.624 12.2627C58.5264 12.5068 58.4775 12.7656 58.4775 13.0391V23H54.4785V7.31152H55.4453L56.5293 8.5127C57.0859 8.04395 57.6963 7.68262 58.3604 7.42871C59.0342 7.16504 59.7324 7.0332 60.4551 7.0332C61.1875 7.0332 61.9004 7.16992 62.5938 7.44336C63.2969 7.7168 63.9121 8.19043 64.4395 8.86426C64.6836 8.53223 64.9619 8.24902 65.2744 8.01465C65.5869 7.78027 65.9141 7.58984 66.2559 7.44336C66.6074 7.29688 66.9688 7.19434 67.3398 7.13574C67.7109 7.06738 68.0771 7.0332 68.4385 7.0332C69.2686 7.0332 70.0449 7.18945 70.7676 7.50195C71.5 7.81445 72.1348 8.24414 72.6719 8.79102C73.2188 9.32812 73.6484 9.96289 73.9609 10.6953C74.2734 11.4277 74.4297 12.209 74.4297 13.0391V23Z" fill="#006EE9"/>
<path d="M82.0762 3.04883C82.0762 3.41992 82.0029 3.7666 81.8564 4.08887C81.7197 4.41113 81.5293 4.69434 81.2852 4.93848C81.041 5.17285 80.7529 5.36328 80.4209 5.50977C80.0986 5.64648 79.752 5.71484 79.3809 5.71484C79.0098 5.71484 78.6582 5.64648 78.3262 5.50977C78.0039 5.36328 77.7207 5.17285 77.4766 4.93848C77.2422 4.69434 77.0518 4.41113 76.9053 4.08887C76.7686 3.7666 76.7002 3.41992 76.7002 3.04883C76.7002 2.6875 76.7686 2.3457 76.9053 2.02344C77.0518 1.69141 77.2422 1.4082 77.4766 1.17383C77.7207 0.929688 78.0039 0.739258 78.3262 0.602539C78.6582 0.456055 79.0098 0.382812 79.3809 0.382812C79.752 0.382812 80.0986 0.456055 80.4209 0.602539C80.7529 0.739258 81.041 0.929688 81.2852 1.17383C81.5293 1.4082 81.7197 1.69141 81.8564 2.02344C82.0029 2.3457 82.0762 2.6875 82.0762 3.04883ZM81.3877 23H77.3594V7.31152H81.3877V23Z" fill="#006EE9"/>
<path d="M90.6895 19.1621C90.8457 19.2109 91.002 19.2451 91.1582 19.2646C91.3145 19.2744 91.4707 19.2793 91.627 19.2793C92.0176 19.2793 92.3936 19.2256 92.7549 19.1182C93.1162 19.0107 93.4531 18.8594 93.7656 18.6641C94.0879 18.459 94.3711 18.2148 94.6152 17.9316C94.8691 17.6387 95.0742 17.3164 95.2305 16.9648L98.1602 19.9092C97.7891 20.4365 97.3594 20.9102 96.8711 21.3301C96.3926 21.75 95.8701 22.1064 95.3037 22.3994C94.7471 22.6924 94.1562 22.9121 93.5312 23.0586C92.916 23.2148 92.2812 23.293 91.627 23.293C90.5234 23.293 89.4834 23.0879 88.5068 22.6777C87.54 22.2676 86.6904 21.6963 85.958 20.9639C85.2354 20.2314 84.6641 19.3623 84.2441 18.3564C83.8242 17.3408 83.6143 16.2275 83.6143 15.0166C83.6143 13.7764 83.8242 12.6436 84.2441 11.6182C84.6641 10.5928 85.2354 9.71875 85.958 8.99609C86.6904 8.27344 87.54 7.71191 88.5068 7.31152C89.4834 6.91113 90.5234 6.71094 91.627 6.71094C92.2812 6.71094 92.9209 6.78906 93.5459 6.94531C94.1709 7.10156 94.7617 7.32617 95.3184 7.61914C95.8848 7.91211 96.4121 8.27344 96.9004 8.70312C97.3887 9.12305 97.8184 9.59668 98.1895 10.124L90.6895 19.1621ZM92.7402 10.915C92.5547 10.8467 92.3691 10.8027 92.1836 10.7832C92.0078 10.7637 91.8223 10.7539 91.627 10.7539C91.0801 10.7539 90.5625 10.8564 90.0742 11.0615C89.5957 11.2568 89.1758 11.54 88.8145 11.9111C88.4629 12.2822 88.1846 12.7314 87.9795 13.2588C87.7744 13.7764 87.6719 14.3623 87.6719 15.0166C87.6719 15.1631 87.6768 15.3291 87.6865 15.5146C87.7061 15.7002 87.7305 15.8906 87.7598 16.0859C87.7988 16.2715 87.8428 16.4521 87.8916 16.6279C87.9404 16.8037 88.0039 16.96 88.082 17.0967L92.7402 10.915Z" fill="#006EE9"/>
<path d="M108.824 23H99.6836V19.0156H108.824C109.098 19.0156 109.332 18.918 109.527 18.7227C109.723 18.5273 109.82 18.293 109.82 18.0195C109.82 17.7363 109.723 17.5508 109.527 17.4629C109.332 17.375 109.098 17.3311 108.824 17.3311H104.664C103.971 17.3311 103.321 17.1992 102.716 16.9355C102.11 16.6719 101.583 16.3154 101.134 15.8662C100.685 15.4072 100.328 14.875 100.064 14.2695C99.8105 13.6641 99.6836 13.0146 99.6836 12.3213C99.6836 11.6279 99.8105 10.9785 100.064 10.373C100.328 9.76758 100.685 9.24023 101.134 8.79102C101.583 8.3418 102.11 7.99023 102.716 7.73633C103.321 7.47266 103.971 7.34082 104.664 7.34082H112.765V11.3252H104.664C104.391 11.3252 104.156 11.4229 103.961 11.6182C103.766 11.8135 103.668 12.0479 103.668 12.3213C103.668 12.6045 103.766 12.8486 103.961 13.0537C104.156 13.249 104.391 13.3467 104.664 13.3467H108.824C109.508 13.3467 110.152 13.4639 110.758 13.6982C111.363 13.9229 111.891 14.2402 112.34 14.6504C112.789 15.0605 113.146 15.5537 113.409 16.1299C113.673 16.7061 113.805 17.3359 113.805 18.0195C113.805 18.7129 113.673 19.3623 113.409 19.9678C113.146 20.5635 112.789 21.0908 112.34 21.5498C111.891 21.999 111.363 22.3555 110.758 22.6191C110.152 22.873 109.508 23 108.824 23Z" fill="#006EE9"/>
<path d="M141.549 20.8467C140.572 21.6865 139.479 22.3311 138.268 22.7803C137.057 23.2295 135.802 23.4541 134.503 23.4541C133.507 23.4541 132.545 23.3223 131.617 23.0586C130.699 22.8047 129.835 22.4434 129.024 21.9746C128.224 21.4961 127.491 20.9248 126.827 20.2607C126.163 19.5967 125.592 18.8643 125.113 18.0635C124.645 17.2529 124.278 16.3887 124.015 15.4707C123.761 14.543 123.634 13.5811 123.634 12.585C123.634 11.5889 123.761 10.627 124.015 9.69922C124.278 8.77148 124.645 7.90723 125.113 7.10645C125.592 6.2959 126.163 5.55859 126.827 4.89453C127.491 4.23047 128.224 3.66406 129.024 3.19531C129.835 2.7168 130.699 2.35059 131.617 2.09668C132.545 1.83301 133.507 1.70117 134.503 1.70117C135.802 1.70117 137.057 1.92578 138.268 2.375C139.479 2.81445 140.572 3.45898 141.549 4.30859L139.322 7.9707C138.707 7.30664 137.979 6.79883 137.14 6.44727C136.3 6.08594 135.421 5.90527 134.503 5.90527C133.575 5.90527 132.706 6.08105 131.896 6.43262C131.085 6.78418 130.377 7.2627 129.771 7.86816C129.166 8.46387 128.688 9.17188 128.336 9.99219C127.984 10.8027 127.809 11.667 127.809 12.585C127.809 13.5029 127.984 14.3672 128.336 15.1777C128.688 15.9785 129.166 16.6816 129.771 17.2871C130.377 17.8926 131.085 18.3711 131.896 18.7227C132.706 19.0742 133.575 19.25 134.503 19.25C135.421 19.25 136.3 19.0742 137.14 18.7227C137.979 18.3613 138.707 17.8486 139.322 17.1846L141.549 20.8467Z" fill="#006EE9"/>
<path d="M147.569 23H143.57V1.07129H147.569V8C148.048 7.63867 148.541 7.38477 149.049 7.23828C149.557 7.08203 150.074 7.00391 150.602 7.00391C151.568 7.00391 152.477 7.18945 153.326 7.56055C154.176 7.92188 154.913 8.4248 155.538 9.06934C156.173 9.7041 156.671 10.4512 157.032 11.3105C157.403 12.1602 157.589 13.0684 157.589 14.0352V23H153.561V14.0352H153.59C153.59 13.625 153.512 13.2393 153.355 12.8779C153.199 12.5068 152.984 12.1846 152.711 11.9111C152.438 11.6377 152.12 11.4229 151.759 11.2666C151.397 11.1104 151.012 11.0322 150.602 11.0322C150.182 11.0322 149.786 11.1104 149.415 11.2666C149.044 11.4229 148.722 11.6377 148.448 11.9111C148.175 12.1846 147.96 12.5068 147.804 12.8779C147.647 13.2393 147.569 13.625 147.569 14.0352V23Z" fill="#006EE9"/>
<path d="M175.606 15.0166C175.606 16.1885 175.396 17.2822 174.977 18.2979C174.557 19.3037 173.985 20.1777 173.263 20.9199C172.54 21.6523 171.69 22.2334 170.714 22.6631C169.747 23.083 168.707 23.293 167.594 23.293C166.49 23.293 165.45 23.083 164.474 22.6631C163.507 22.2334 162.657 21.6523 161.925 20.9199C161.202 20.1777 160.631 19.3037 160.211 18.2979C159.791 17.2822 159.581 16.1885 159.581 15.0166C159.581 13.8252 159.791 12.7217 160.211 11.7061C160.631 10.6904 161.202 9.81641 161.925 9.08398C162.657 8.3418 163.507 7.76074 164.474 7.34082C165.45 6.9209 166.49 6.71094 167.594 6.71094C168.707 6.71094 169.747 6.91113 170.714 7.31152C171.69 7.70215 172.54 8.26367 173.263 8.99609C173.985 9.71875 174.557 10.5928 174.977 11.6182C175.396 12.6338 175.606 13.7666 175.606 15.0166ZM171.578 15.0166C171.578 14.3721 171.471 13.791 171.256 13.2734C171.051 12.7461 170.768 12.2969 170.406 11.9258C170.045 11.5449 169.62 11.2568 169.132 11.0615C168.653 10.8564 168.141 10.7539 167.594 10.7539C167.047 10.7539 166.529 10.8564 166.041 11.0615C165.562 11.2568 165.143 11.5449 164.781 11.9258C164.43 12.2969 164.151 12.7461 163.946 13.2734C163.741 13.791 163.639 14.3721 163.639 15.0166C163.639 15.6221 163.741 16.1836 163.946 16.7012C164.151 17.2188 164.43 17.668 164.781 18.0488C165.143 18.4297 165.562 18.7324 166.041 18.957C166.529 19.1719 167.047 19.2793 167.594 19.2793C168.141 19.2793 168.653 19.1768 169.132 18.9717C169.62 18.7666 170.045 18.4785 170.406 18.1074C170.768 17.7363 171.051 17.2871 171.256 16.7598C171.471 16.2324 171.578 15.6514 171.578 15.0166Z" fill="#006EE9"/>
<path d="M181.817 23H177.818V7.31152H178.785L180.104 9.17188C180.748 8.58594 181.48 8.13672 182.301 7.82422C183.121 7.50195 183.971 7.34082 184.85 7.34082H188.38V11.3252H184.85C184.43 11.3252 184.034 11.4033 183.663 11.5596C183.292 11.7158 182.97 11.9307 182.696 12.2041C182.423 12.4775 182.208 12.7998 182.052 13.1709C181.896 13.542 181.817 13.9375 181.817 14.3574V23Z" fill="#006EE9"/>
<path d="M196.188 19.1621C196.344 19.2109 196.5 19.2451 196.656 19.2646C196.812 19.2744 196.969 19.2793 197.125 19.2793C197.516 19.2793 197.892 19.2256 198.253 19.1182C198.614 19.0107 198.951 18.8594 199.264 18.6641C199.586 18.459 199.869 18.2148 200.113 17.9316C200.367 17.6387 200.572 17.3164 200.729 16.9648L203.658 19.9092C203.287 20.4365 202.857 20.9102 202.369 21.3301C201.891 21.75 201.368 22.1064 200.802 22.3994C200.245 22.6924 199.654 22.9121 199.029 23.0586C198.414 23.2148 197.779 23.293 197.125 23.293C196.021 23.293 194.981 23.0879 194.005 22.6777C193.038 22.2676 192.188 21.6963 191.456 20.9639C190.733 20.2314 190.162 19.3623 189.742 18.3564C189.322 17.3408 189.112 16.2275 189.112 15.0166C189.112 13.7764 189.322 12.6436 189.742 11.6182C190.162 10.5928 190.733 9.71875 191.456 8.99609C192.188 8.27344 193.038 7.71191 194.005 7.31152C194.981 6.91113 196.021 6.71094 197.125 6.71094C197.779 6.71094 198.419 6.78906 199.044 6.94531C199.669 7.10156 200.26 7.32617 200.816 7.61914C201.383 7.91211 201.91 8.27344 202.398 8.70312C202.887 9.12305 203.316 9.59668 203.688 10.124L196.188 19.1621ZM198.238 10.915C198.053 10.8467 197.867 10.8027 197.682 10.7832C197.506 10.7637 197.32 10.7539 197.125 10.7539C196.578 10.7539 196.061 10.8564 195.572 11.0615C195.094 11.2568 194.674 11.54 194.312 11.9111C193.961 12.2822 193.683 12.7314 193.478 13.2588C193.272 13.7764 193.17 14.3623 193.17 15.0166C193.17 15.1631 193.175 15.3291 193.185 15.5146C193.204 15.7002 193.229 15.8906 193.258 16.0859C193.297 16.2715 193.341 16.4521 193.39 16.6279C193.438 16.8037 193.502 16.96 193.58 17.0967L198.238 10.915Z" fill="#006EE9"/>
<defs>
<linearGradient id="paint0_linear_13_337" x1="159.359" y1="50.5709" x2="20.036" y2="7.99219" gradientUnits="userSpaceOnUse">
<stop offset="0.019257" stop-color="#002FD5"/>
<stop offset="1" stop-color="#6887F2"/>
</linearGradient>
</defs>
</svg>
