<svg width="217" height="200" viewBox="0 0 217 200" fill="none" xmlns="http://www.w3.org/2000/svg">
<path d="M111.512 200C163.66 200 205.935 196.288 205.935 191.709C205.935 187.13 163.66 183.418 111.512 183.418C59.3632 183.418 17.0884 187.13 17.0884 191.709C17.0884 196.288 59.3632 200 111.512 200Z" fill="#006EE9"/>
<path opacity="0.5" d="M111.512 200C163.66 200 205.935 196.288 205.935 191.709C205.935 187.13 163.66 183.418 111.512 183.418C59.3632 183.418 17.0884 187.13 17.0884 191.709C17.0884 196.288 59.3632 200 111.512 200Z" fill="white"/>
<path d="M15.2257 86.8445V91.7472" stroke="#263238" stroke-linecap="round" stroke-linejoin="round"/>
<path d="M17.6798 89.2986H12.7771" stroke="#263238" stroke-linecap="round" stroke-linejoin="round"/>
<path d="M182.521 44.8367V49.7394" stroke="#263238" stroke-linecap="round" stroke-linejoin="round"/>
<path d="M184.97 47.2909H180.067" stroke="#263238" stroke-linecap="round" stroke-linejoin="round"/>
<path d="M112.877 6.88599V11.7887" stroke="#263238" stroke-linecap="round" stroke-linejoin="round"/>
<path d="M115.326 9.33459H110.423" stroke="#263238" stroke-linecap="round" stroke-linejoin="round"/>
<path d="M32.178 141.753V146.656" stroke="#263238" stroke-linecap="round" stroke-linejoin="round"/>
<path d="M34.6266 144.202H29.7239" stroke="#263238" stroke-linecap="round" stroke-linejoin="round"/>
<path d="M180.327 27.1658C180.328 27.9684 180.091 28.7534 179.646 29.4213C179.201 30.0892 178.568 30.6101 177.826 30.918C177.085 31.2259 176.269 31.307 175.482 31.1511C174.695 30.9952 173.971 30.6092 173.403 30.0421C172.835 29.4749 172.448 28.752 172.291 27.9648C172.134 27.1777 172.214 26.3617 172.521 25.62C172.828 24.8784 173.348 24.2444 174.016 23.7984C174.683 23.3523 175.467 23.1143 176.27 23.1143C177.345 23.1143 178.376 23.5409 179.137 24.3006C179.898 25.0602 180.326 26.0908 180.327 27.1658Z" stroke="#263238" stroke-linecap="round" stroke-linejoin="round"/>
<path d="M6.84404 124.511C8.91132 123.654 9.89301 121.284 9.03672 119.217C8.18043 117.15 5.81041 116.168 3.74313 117.024C1.67586 117.881 0.694166 120.251 1.55046 122.318C2.40675 124.385 4.77677 125.367 6.84404 124.511Z" stroke="#263238" stroke-linecap="round" stroke-linejoin="round"/>
<path d="M198.75 68.6209C198.76 68.7477 198.743 68.8752 198.701 68.9954C198.659 69.1156 198.593 69.2258 198.507 69.3192C198.42 69.4126 198.316 69.4871 198.199 69.538C198.083 69.589 197.957 69.6153 197.829 69.6153C197.702 69.6153 197.576 69.589 197.46 69.538C197.343 69.4871 197.238 69.4126 197.152 69.3192C197.066 69.2258 196.999 69.1156 196.958 68.9954C196.916 68.8752 196.899 68.7477 196.909 68.6209C196.927 68.3891 197.032 68.1726 197.202 68.0148C197.373 67.8569 197.597 67.7692 197.829 67.7692C198.062 67.7692 198.286 67.8569 198.456 68.0148C198.627 68.1726 198.732 68.3891 198.75 68.6209Z" stroke="#263238" stroke-linecap="round" stroke-linejoin="round"/>
<path d="M58.173 55.3552C58.1741 55.538 58.1209 55.717 58.0202 55.8695C57.9194 56.022 57.7756 56.1412 57.607 56.2119C57.4385 56.2826 57.2527 56.3017 57.0733 56.2667C56.8939 56.2317 56.7289 56.1442 56.5992 56.0154C56.4696 55.8865 56.3811 55.722 56.345 55.5428C56.309 55.3636 56.3269 55.1777 56.3966 55.0087C56.4663 54.8397 56.5846 54.6953 56.7366 54.5936C56.8885 54.4919 57.0672 54.4376 57.25 54.4376C57.4938 54.4376 57.7278 54.5341 57.9007 54.706C58.0737 54.8779 58.1716 55.1113 58.173 55.3552V55.3552Z" stroke="#263238" stroke-linecap="round" stroke-linejoin="round"/>
<path d="M213.077 109.711V109.683H213.043V109.656C212.275 109.578 204.321 108.898 197.064 112.668C200.27 108.641 201.749 103.507 201.176 98.391C199.424 80.8694 182.892 70.8428 181.615 70.0911V70.0966H181.576H181.538C180.261 70.8483 163.728 80.8749 161.976 98.3965C161.602 101.788 162.124 105.219 163.491 108.346C154.183 102.78 143.327 103.719 142.327 103.819V103.786V103.824H142.288V103.852C141.796 104.985 135.583 119.925 143.045 132.622C149.722 143.975 163.723 140.974 167.526 139.907C170.721 143.262 176.546 150.901 179.133 163.934H175.507L177.193 188.652H185.351L187.142 163.967H182.87C184.827 155.133 188.359 146.723 193.294 139.139C197.103 140.089 207.405 141.692 212.485 133.058C218.521 122.75 213.48 110.634 213.077 109.711ZM181.316 109.617L172.694 97.6393C172.676 97.6147 172.662 97.5867 172.655 97.5569C172.648 97.5271 172.646 97.4962 172.651 97.4659C172.655 97.4355 172.666 97.4064 172.682 97.3802C172.698 97.354 172.719 97.3312 172.744 97.3132C172.794 97.2759 172.858 97.2603 172.92 97.2696C172.982 97.2789 173.038 97.3125 173.075 97.3629L181.333 108.832V96.6996L172.71 84.7274C172.673 84.6768 172.657 84.6135 172.667 84.5514C172.676 84.4892 172.71 84.4333 172.76 84.3958C172.812 84.3605 172.875 84.3466 172.937 84.3569C172.999 84.3672 173.054 84.4009 173.092 84.4511L181.35 95.9203V78.2328C181.35 78.2023 181.356 78.1722 181.367 78.144C181.379 78.1158 181.396 78.0902 181.418 78.0687C181.439 78.0471 181.465 78.03 181.493 78.0183C181.521 78.0067 181.551 78.0007 181.582 78.0007C181.643 78.0007 181.702 78.0251 181.746 78.0687C181.789 78.1122 181.814 78.1713 181.814 78.2328V95.3068L190.768 83.9536C190.806 83.9045 190.862 83.8725 190.924 83.8648C190.986 83.857 191.048 83.874 191.097 83.9122C191.146 83.9503 191.178 84.0063 191.186 84.068C191.194 84.1297 191.177 84.1919 191.139 84.241L181.814 96.064V108.224L190.768 96.8655C190.807 96.8167 190.864 96.7853 190.926 96.7781C190.988 96.7708 191.051 96.7883 191.1 96.8268C191.124 96.8456 191.144 96.869 191.159 96.8956C191.174 96.9222 191.183 96.9515 191.187 96.9818C191.19 97.0121 191.188 97.0428 191.18 97.0721C191.171 97.1015 191.157 97.1289 191.139 97.1529L181.814 108.981V119.29L190.768 107.937C190.806 107.888 190.862 107.856 190.924 107.848C190.986 107.84 191.048 107.857 191.097 107.895C191.146 107.933 191.178 107.989 191.186 108.051C191.194 108.113 191.177 108.175 191.139 108.224L181.814 120.047V120.274H181.062L172.721 108.666C172.684 108.616 172.669 108.552 172.678 108.49C172.687 108.428 172.721 108.372 172.771 108.335C172.823 108.299 172.886 108.285 172.948 108.296C173.01 108.306 173.065 108.34 173.103 108.39L181.333 119.843V109.595L181.316 109.617ZM167.614 138.851L166.769 137.69L154.608 134.308C154.56 134.291 154.519 134.257 154.495 134.212C154.47 134.167 154.463 134.114 154.476 134.064C154.49 134.014 154.523 133.971 154.569 133.945C154.614 133.92 154.668 133.913 154.719 133.926L166.371 137.176L161.302 130.245L149.142 126.862C149.091 126.848 149.049 126.815 149.023 126.769C148.997 126.724 148.99 126.67 149.004 126.619C149.02 126.571 149.054 126.53 149.099 126.505C149.144 126.481 149.197 126.474 149.247 126.486L160.904 129.737L154.912 121.534L142.752 118.151C142.728 118.145 142.705 118.134 142.684 118.118C142.664 118.103 142.647 118.083 142.635 118.061C142.623 118.039 142.615 118.014 142.612 117.989C142.61 117.963 142.612 117.938 142.62 117.914C142.626 117.889 142.637 117.866 142.653 117.845C142.668 117.825 142.688 117.808 142.71 117.795C142.732 117.782 142.756 117.774 142.782 117.77C142.807 117.767 142.833 117.769 142.857 117.775L154.514 121.025L146.085 109.495C146.055 109.453 146.042 109.4 146.051 109.348C146.059 109.296 146.087 109.25 146.129 109.219C146.15 109.203 146.173 109.192 146.198 109.186C146.223 109.179 146.249 109.178 146.274 109.182C146.3 109.187 146.324 109.196 146.346 109.21C146.367 109.224 146.386 109.242 146.4 109.263L155.122 121.191L155.084 109.368C155.085 109.316 155.107 109.266 155.144 109.229C155.181 109.192 155.23 109.171 155.283 109.169C155.335 109.171 155.384 109.192 155.42 109.23C155.456 109.267 155.476 109.316 155.476 109.368L155.565 121.711L161.556 129.908L161.468 118.085C161.463 118.056 161.464 118.027 161.472 117.999C161.48 117.971 161.493 117.945 161.512 117.923C161.531 117.901 161.554 117.884 161.58 117.871C161.607 117.859 161.635 117.853 161.664 117.853C161.693 117.853 161.722 117.859 161.748 117.871C161.774 117.884 161.797 117.901 161.816 117.923C161.835 117.945 161.848 117.971 161.856 117.999C161.864 118.027 161.865 118.056 161.86 118.085L161.949 130.433L167.012 137.359L166.923 125.536C166.925 125.484 166.946 125.435 166.983 125.399C167.021 125.362 167.07 125.342 167.122 125.342C167.174 125.342 167.223 125.363 167.259 125.399C167.295 125.435 167.316 125.484 167.316 125.536L167.404 137.884L168.128 138.873L167.614 138.851ZM168.996 138.851C170.765 136.159 175.872 127.321 172.821 118.815C175.193 120.379 177.731 121.677 180.388 122.684V161.065C177.586 149.303 172.312 142.273 169.096 138.851H168.996ZM182.262 158.7V122.861C184.79 121.942 187.216 120.76 189.497 119.334C184.627 127.139 190.083 136.154 191.52 138.282C187.429 144.586 184.308 151.469 182.262 158.7ZM212.618 121.285L202.774 124.049L197.91 130.682L207.367 128.045C207.387 128.038 207.409 128.036 207.43 128.038C207.451 128.04 207.472 128.046 207.491 128.057C207.509 128.067 207.526 128.081 207.539 128.098C207.551 128.115 207.561 128.135 207.566 128.156C207.576 128.196 207.57 128.239 207.55 128.275C207.529 128.311 207.495 128.338 207.455 128.349L197.611 131.113L193.499 136.734L202.956 134.098C202.996 134.087 203.039 134.093 203.075 134.114C203.111 134.134 203.138 134.168 203.149 134.208C203.16 134.249 203.154 134.293 203.134 134.33C203.113 134.367 203.079 134.394 203.039 134.407L193.195 137.171L192.675 137.878C192.581 137.823 192.493 137.773 192.404 137.712L192.697 137.309L192.775 127.293C192.77 127.27 192.771 127.246 192.777 127.224C192.783 127.201 192.794 127.18 192.809 127.161C192.824 127.143 192.843 127.129 192.864 127.119C192.885 127.109 192.909 127.104 192.932 127.104C192.956 127.104 192.979 127.109 193 127.119C193.022 127.129 193.04 127.143 193.056 127.161C193.071 127.18 193.081 127.201 193.087 127.224C193.093 127.246 193.094 127.27 193.09 127.293L193.023 136.889L197.091 131.24L197.163 121.224C197.163 121.204 197.167 121.183 197.176 121.164C197.184 121.145 197.196 121.127 197.211 121.113C197.226 121.099 197.243 121.087 197.263 121.08C197.282 121.072 197.303 121.069 197.324 121.07C197.345 121.07 197.366 121.074 197.385 121.082C197.404 121.09 197.422 121.102 197.437 121.117C197.452 121.131 197.464 121.149 197.472 121.169C197.48 121.188 197.484 121.209 197.484 121.23L197.412 130.82L202.276 124.187L202.348 114.172C202.348 114.15 202.352 114.13 202.36 114.11C202.368 114.091 202.38 114.073 202.395 114.058C202.41 114.043 202.427 114.032 202.447 114.023C202.466 114.015 202.487 114.011 202.508 114.011C202.529 114.011 202.55 114.015 202.569 114.024C202.588 114.032 202.605 114.044 202.62 114.059C202.634 114.073 202.645 114.091 202.653 114.111C202.66 114.13 202.664 114.151 202.663 114.172L202.597 123.761L209.672 114.083C209.697 114.05 209.734 114.028 209.775 114.022C209.817 114.015 209.859 114.026 209.893 114.05C209.91 114.062 209.924 114.077 209.935 114.095C209.946 114.113 209.953 114.133 209.957 114.153C209.96 114.174 209.959 114.195 209.953 114.215C209.948 114.236 209.939 114.255 209.926 114.271L203.089 123.629L212.546 120.992C212.586 120.982 212.629 120.988 212.665 121.008C212.701 121.029 212.728 121.063 212.739 121.103C212.744 121.123 212.745 121.144 212.741 121.164C212.738 121.184 212.73 121.203 212.718 121.221C212.707 121.238 212.692 121.252 212.675 121.263C212.658 121.275 212.638 121.282 212.618 121.285Z" fill="#263238"/>
<path d="M158.892 23.7113H73.5502C71.4896 23.7113 69.8192 25.3817 69.8192 27.4423V187.232C69.8192 189.292 71.4896 190.963 73.5502 190.963H158.892C160.953 190.963 162.623 189.292 162.623 187.232V27.4423C162.623 25.3817 160.953 23.7113 158.892 23.7113Z" fill="#263238" stroke="#263238" stroke-linecap="round" stroke-linejoin="round"/>
<path d="M155.946 23.7113H70.604C68.5434 23.7113 66.873 25.3817 66.873 27.4423V187.232C66.873 189.292 68.5434 190.963 70.604 190.963H155.946C158.007 190.963 159.677 189.292 159.677 187.232V27.4423C159.677 25.3817 158.007 23.7113 155.946 23.7113Z" fill="white"/>
<path d="M159.677 86.8224L78.0714 190.968H155.952C156.94 190.967 157.888 190.573 158.586 189.874C159.285 189.174 159.677 188.226 159.677 187.237V86.8224Z" fill="#006EE9"/>
<path opacity="0.5" d="M159.677 86.8224L78.0714 190.968H155.952C156.94 190.967 157.888 190.573 158.586 189.874C159.285 189.174 159.677 188.226 159.677 187.237V86.8224Z" fill="white"/>
<path d="M155.946 23.7113H70.604C68.5434 23.7113 66.873 25.3817 66.873 27.4423V187.232C66.873 189.292 68.5434 190.963 70.604 190.963H155.946C158.007 190.963 159.677 189.292 159.677 187.232V27.4423C159.677 25.3817 158.007 23.7113 155.946 23.7113Z" stroke="#263238" stroke-linecap="round" stroke-linejoin="round"/>
<path d="M119.709 33.7046H108.157C107.842 33.7046 107.539 33.5794 107.316 33.3565C107.094 33.1337 106.968 32.8314 106.968 32.5162C106.968 32.3604 106.999 32.2062 107.059 32.0623C107.119 31.9184 107.206 31.7878 107.317 31.6779C107.427 31.568 107.558 31.481 107.702 31.4218C107.847 31.3627 108.001 31.3327 108.157 31.3334H119.709C120.023 31.3334 120.323 31.458 120.545 31.6798C120.767 31.9017 120.892 32.2025 120.892 32.5162C120.892 32.672 120.862 32.8264 120.803 32.9706C120.744 33.1147 120.657 33.2458 120.547 33.3562C120.437 33.4666 120.307 33.5543 120.163 33.614C120.019 33.6738 119.865 33.7046 119.709 33.7046Z" fill="#263238" stroke="#263238" stroke-linecap="round" stroke-linejoin="round"/>
<path d="M153.813 176.017H72.7266V33.8429H91.9451L94.1063 35.6337C94.8605 36.2619 95.811 36.6061 96.7926 36.6066H130.703C131.721 36.6024 132.703 36.2293 133.466 35.5564L135.423 33.8429H153.813V176.017Z" fill="#263238" stroke="#263238" stroke-linecap="round" stroke-linejoin="round"/>
<path d="M87.9489 145.362H138.601" stroke="white" stroke-linecap="round" stroke-linejoin="round"/>
<path d="M87.9489 152.028H138.601" stroke="white" stroke-linecap="round" stroke-linejoin="round"/>
<path d="M87.9489 158.694H138.601" stroke="white" stroke-linecap="round" stroke-linejoin="round"/>
<path d="M92.6249 83.4728C89.4415 88.0852 87.8956 93.6313 88.2341 99.2253C88.5726 104.819 90.776 110.139 94.4923 114.333C98.2086 118.528 103.223 121.357 108.736 122.367C114.248 123.377 119.94 122.511 124.903 119.907C129.865 117.303 133.812 113.111 136.112 108C138.413 102.89 138.934 97.1563 137.593 91.7148C136.253 86.2732 133.127 81.4379 128.716 77.9812C124.305 74.5244 118.863 72.6456 113.258 72.6448C111.722 72.6449 110.188 72.7836 108.676 73.0593" stroke="white" stroke-linecap="round" stroke-linejoin="round"/>
<path d="M96.8976 78.7358C96.0554 79.4647 95.2615 80.2476 94.5209 81.0794" stroke="white" stroke-linecap="round" stroke-linejoin="round"/>
<path d="M132.843 106.051C137.446 95.2433 132.417 82.7508 121.61 78.1479C110.802 73.5449 98.31 78.5744 93.707 89.3816C89.104 100.189 94.1335 112.681 104.941 117.284C115.748 121.887 128.24 116.858 132.843 106.051Z" fill="#006EE9"/>
<path d="M103.453 95.5058L111.523 104.676L124.722 85.9767" stroke="#263238" stroke-width="6" stroke-linecap="round" stroke-linejoin="round"/>
<path d="M133.489 35.5564C132.725 36.2293 131.743 36.6024 130.725 36.6066H96.8036C95.822 36.6061 94.8716 36.2619 94.1173 35.6337L91.9561 33.8429H72.7266V48.3853H153.813V33.8429H135.445L133.489 35.5564Z" fill="#006EE9" stroke="#263238" stroke-linecap="round" stroke-linejoin="round"/>
<path d="M115.867 180.4C115.869 180.035 115.761 179.677 115.559 179.372C115.356 179.068 115.068 178.83 114.73 178.69C114.393 178.55 114.021 178.513 113.662 178.584C113.304 178.655 112.974 178.831 112.716 179.089C112.457 179.348 112.281 179.677 112.21 180.036C112.139 180.394 112.176 180.766 112.317 181.104C112.457 181.441 112.695 181.729 112.999 181.932C113.304 182.134 113.661 182.242 114.027 182.241C114.515 182.239 114.982 182.045 115.327 181.7C115.672 181.355 115.866 180.888 115.867 180.4Z" fill="#263238" stroke="#263238" stroke-linecap="round" stroke-linejoin="round"/>
<path d="M43.7522 123.855L36.5225 188.525C36.5225 188.525 31.2217 193.135 31.686 194.998C32.1503 196.86 38.2691 193.892 39.1148 192.356C39.7149 191.077 40.1424 189.724 40.3861 188.332L55.6083 139.691L67.3152 191.853C67.3152 191.853 72.2898 195.937 75.0535 195.799C77.8172 195.661 76.8333 194.572 75.258 192.577C73.6827 190.581 70.1176 189.443 70.1176 189.443L68.3599 122.214L43.7522 123.855Z" fill="#263238" stroke="#263238" stroke-linecap="round" stroke-linejoin="round"/>
<path d="M67.9632 121.083L43.6743 122.317L43.8427 125.629L68.1316 124.395L67.9632 121.083Z" fill="#263238" stroke="#263238" stroke-linecap="round" stroke-linejoin="round"/>
<path d="M58.7424 123.187C58.7811 124.01 57.7364 124.729 56.3988 124.801C55.0612 124.873 53.9336 124.265 53.9336 123.435C53.9336 122.606 54.9451 121.893 56.2772 121.827C57.6093 121.761 58.6982 122.369 58.7424 123.187Z" fill="white"/>
<path d="M54.5804 89.2046L45.4492 91.8798L46.5823 122.402L68.0007 121.871L65.2923 90.3211L54.5804 89.2046Z" fill="white" stroke="#263238" stroke-linecap="round" stroke-linejoin="round"/>
<path d="M50.584 89.5474L49.3569 141.631L37.7274 135.999L42.8402 119.55L39.3525 91.7749L50.584 89.5474Z" fill="#006EE9" stroke="#263238" stroke-linecap="round" stroke-linejoin="round"/>
<path d="M59.8313 89.0775L66.3314 140.769L77.3364 133.987L70.582 118.14L71.2342 90.1553L59.8313 89.0775Z" fill="#006EE9" stroke="#263238" stroke-linecap="round" stroke-linejoin="round"/>
<path d="M52.911 95.3786L54.724 98.3302L53.2758 118.881L56.7138 122.949L58.4936 118.063L55.741 98.3689L57.4379 95.5168L54.9727 92.322L52.911 95.3786Z" fill="#263238" stroke="#263238" stroke-linecap="round" stroke-linejoin="round"/>
<path d="M55.1552 94.9862L51.7337 97.5619L48.9922 90.8738L50.5343 88.486L58.9082 88.0604L60.887 90.7301L59.2564 96.8102L55.1552 94.9862Z" fill="white" stroke="#263238" stroke-linecap="round" stroke-linejoin="round"/>
<path d="M51.2307 85.9159L51.999 90.1664L55.1551 94.9863L58.0459 89.3042L57.8635 85.7169L51.2307 85.9159Z" fill="white" stroke="#263238" stroke-linecap="round" stroke-linejoin="round"/>
<path d="M39.3525 91.7748L23.8428 110.551L34.1513 122.755L38.3023 120.058L33.2061 109.661L40.8117 104.156L39.3525 91.7748Z" fill="#006EE9" stroke="#263238" stroke-linecap="round" stroke-linejoin="round"/>
<path d="M38.3023 120.058L38.9213 121.407L35.4281 123.386L34.9583 122.302L38.3023 120.058Z" fill="white" stroke="#263238" stroke-linecap="round" stroke-linejoin="round"/>
<path d="M38.9214 121.407L42.481 126.072L41.3092 127.515L40.458 127.144L38.7334 128.615C38.7334 128.615 37.4732 128.261 37.3129 127.857C37.1526 127.454 35.4447 126.426 35.406 125.74C35.3673 125.055 35.406 123.386 35.406 123.386L38.9214 121.407Z" fill="white" stroke="#263238" stroke-linecap="round" stroke-linejoin="round"/>
<path d="M79.8733 93.82C80.0834 93.272 80.1295 92.6747 80.006 92.101C79.7517 91.4433 79.1879 89.166 79.2985 88.4143C79.409 87.6626 80.5477 86.5681 80.6472 85.5953C80.7467 84.6225 80.6472 83.7326 80.6472 83.2075C80.6563 83.0638 80.7116 82.9269 80.8049 82.8171C80.8981 82.7074 81.0243 82.6306 81.1646 82.5983C81.305 82.566 81.452 82.5799 81.5839 82.6379C81.7157 82.6959 81.8253 82.7948 81.8963 82.9201C82.4491 83.5613 82.7807 84.219 82.5154 84.8989C82.3347 85.6592 82.2493 86.439 82.2611 87.2204C82.2611 87.2204 83.1455 88.4419 83.6319 89.2379C84.1183 90.0338 84.0741 92.1176 83.748 92.9522C83.444 93.5843 83.0153 94.1483 82.4878 94.6104L82.543 96.0475L79.8733 93.82Z" fill="white" stroke="#263238" stroke-linecap="round" stroke-linejoin="round"/>
<path d="M81.4873 86.0707C81.4873 86.0707 81.1004 87.2093 81.7803 87.4691C82.4601 87.7289 85.2404 88.1158 85.268 87.2204C85.2957 86.3249 85.3509 85.8772 84.9032 85.8993C84.4555 85.9214 82.3717 85.8993 82.3717 85.8993C82.3717 85.8993 81.4044 85.8496 81.4873 86.0707Z" fill="white" stroke="#263238" stroke-linecap="round" stroke-linejoin="round"/>
<path d="M81.8023 91.6532C81.8023 91.6532 81.526 92.4989 82.0179 92.6924C82.5098 92.8858 84.5107 93.1788 84.5273 92.51C84.5439 91.8412 84.5826 91.5095 84.262 91.5261C83.9414 91.5427 82.438 91.5261 82.438 91.5261C82.438 91.5261 81.7415 91.4764 81.8023 91.6532Z" fill="white" stroke="#263238" stroke-linecap="round" stroke-linejoin="round"/>
<path d="M81.4321 89.8459C81.4321 89.8459 81.1115 90.8297 81.6808 91.0564C82.2502 91.283 84.5661 91.6091 84.5882 90.8463C84.6103 90.0835 84.6545 89.6856 84.2787 89.7022C83.9028 89.7187 82.1672 89.7022 82.1672 89.7022C82.1672 89.7022 81.3603 89.6579 81.4321 89.8459Z" fill="white" stroke="#263238" stroke-linecap="round" stroke-linejoin="round"/>
<path d="M81.2165 88.0937C81.2165 88.0937 80.8296 89.2323 81.5149 89.4921C82.2003 89.7519 84.9695 90.1388 84.9972 89.2434C85.0248 88.3479 85.0801 87.9002 84.6324 87.9223C84.1846 87.9444 82.1009 87.9223 82.1009 87.9223C82.1009 87.9223 81.1336 87.8781 81.2165 88.0937Z" fill="white" stroke="#263238" stroke-linecap="round" stroke-linejoin="round"/>
<path d="M79.5583 94.9531L79.9895 93.2175L82.9853 95.0029L82.4823 96.8877L79.5583 94.9531Z" fill="white" stroke="#263238" stroke-linecap="round" stroke-linejoin="round"/>
<path d="M71.2341 90.1553L76.9715 102.365L79.7904 94.5108L82.5541 97.1418L79.7241 111.701C79.6359 112.149 79.4185 112.562 79.0988 112.888C78.7792 113.214 78.3711 113.44 77.9247 113.538C77.4784 113.635 77.0133 113.6 76.5867 113.437C76.16 113.273 75.7904 112.989 75.5233 112.618L70.9412 106.223L71.2341 90.1553Z" fill="#006EE9" stroke="#263238" stroke-linecap="round" stroke-linejoin="round"/>
<path d="M48.561 80.9523C48.561 80.9523 47.4003 79.7142 47.251 80.6206C47.1018 81.5271 47.5716 83.0914 48.3012 83.6496C49.0308 84.2079 49.672 83.2848 49.672 83.2848L48.561 80.9523Z" fill="white" stroke="#263238" stroke-linecap="round" stroke-linejoin="round"/>
<path d="M59.5327 80.394C59.5327 80.394 60.5553 79.0454 60.804 79.9297C61.0528 80.8141 60.7322 82.4226 60.0634 83.0527C59.3946 83.6828 58.6594 82.8261 58.6594 82.8261L59.5327 80.394Z" fill="white" stroke="#263238" stroke-linecap="round" stroke-linejoin="round"/>
<path d="M49.0253 82.2237L47.9198 79.8856C47.0301 78.6333 46.4142 77.2076 46.1124 75.7014C45.5597 73.1367 46.4717 71.0032 47.6324 70.3454C48.2848 69.9549 49.055 69.8099 49.8047 69.9364C49.8047 69.9364 50.0257 68.433 53.6738 67.1727C57.3218 65.9125 61.2905 68.1842 61.2297 68.9802C61.1689 69.7761 60.196 70.1298 60.196 70.1298C60.196 70.1298 63.0371 71.18 62.009 72.5232C61.375 73.3437 60.5546 74.0012 59.6157 74.4412C59.8217 75.1185 59.9896 75.8068 60.1187 76.5029C60.2624 77.3928 59.4609 81.2177 59.4609 81.2177L57.4987 75.8396L51.3413 76.1546C51.3413 76.1546 50.9765 78.7635 50.3242 79.6921C49.9079 80.397 49.676 81.1954 49.6499 82.0136C49.6499 82.0136 49.3625 82.9975 49.0253 82.2237Z" fill="#263238" stroke="#263238" stroke-linecap="round" stroke-linejoin="round"/>
<path d="M50.1197 72.5066C50.1092 74.1117 49.9928 75.7145 49.7715 77.3043C49.6383 78.189 49.1813 78.9927 48.4891 79.5595C48.4891 79.5595 49.274 83.202 50.2689 85.1421C51.2639 87.0822 53.3311 88.674 55.4149 88.4585C57.4987 88.2429 59.1624 85.8772 59.3614 83.8763C59.5604 81.8754 58.5821 74.4798 58.5821 74.4798C58.5821 74.4798 52.0709 75.624 50.1197 72.5066Z" fill="white" stroke="#263238" stroke-linecap="round" stroke-linejoin="round"/>
<path d="M50.6725 79.985C51.0044 79.7886 51.3791 79.6759 51.7643 79.6567C52.1495 79.6374 52.5336 79.7122 52.8834 79.8745" stroke="#263238" stroke-linecap="round" stroke-linejoin="round"/>
<path d="M50.584 78.3269C50.584 78.3269 50.7111 77.2214 52.5572 77.1219" stroke="#263238" stroke-linecap="round" stroke-linejoin="round"/>
<path d="M55.4978 76.8787C55.9155 76.7076 56.3771 76.6748 56.8148 76.7852C57.2525 76.8956 57.6433 77.1434 57.9298 77.4922" stroke="#263238" stroke-linecap="round" stroke-linejoin="round"/>
<path d="M54.8511 78.6641C54.8511 78.6641 55.1441 80.875 55.1607 81.1458C55.1772 81.4167 56.1003 81.4664 55.8516 82.0302C55.6028 82.594 54.8014 83.1909 54.1326 82.7653" stroke="#263238" stroke-linecap="round" stroke-linejoin="round"/>
<path d="M55.8903 84.6169C55.8903 84.6169 55.1883 85.2968 53.7733 84.722" stroke="#263238" stroke-linecap="round" stroke-linejoin="round"/>
<path d="M57.2887 79.3715C57.2887 79.7805 57.1173 80.1232 56.8631 80.1342C56.6088 80.1453 56.3877 79.8247 56.3656 79.4212C56.3435 79.0177 56.537 78.675 56.7912 78.6584C57.0455 78.6419 57.25 78.968 57.2887 79.3715Z" fill="#263238"/>
</svg>
