<svg width="50" height="48" viewBox="0 0 50 48" fill="none" xmlns="http://www.w3.org/2000/svg">
<path d="M0 10C0 4.47716 4.47715 0 10 0H50V47.6667H10C4.47715 47.6667 0 43.1895 0 37.6667V10Z" fill="#006EE9"/>
<path d="M24.9873 15C27.5446 15 29.6023 17.0123 29.6023 19.4967V20.7745C31.0376 21.2225 32.0833 22.5218 32.0833 24.0737V28.1878C32.0833 30.109 30.4905 31.6667 28.5268 31.6667H21.474C19.5095 31.6667 17.9167 30.109 17.9167 28.1878V24.0737C17.9167 22.5218 18.9633 21.2225 20.3977 20.7745V19.4967C20.4062 17.0123 22.4639 15 24.9873 15ZM24.9958 24.4869C24.5893 24.4869 24.2591 24.8099 24.2591 25.2074V27.0458C24.2591 27.4516 24.5893 27.7745 24.9958 27.7745C25.4107 27.7745 25.7409 27.4516 25.7409 27.0458V25.2074C25.7409 24.8099 25.4107 24.4869 24.9958 24.4869ZM25.0042 16.4492C23.2853 16.4492 21.8881 17.8073 21.8796 19.4801V20.5948H28.1204V19.4967C28.1204 17.8156 26.7232 16.4492 25.0042 16.4492Z" fill="white"/>
</svg>
