<svg width="50" height="48" viewBox="0 0 50 48" fill="none" xmlns="http://www.w3.org/2000/svg">
<path d="M0 10C0 4.47715 4.47715 0 10 0H50V48H10C4.47715 48 0 43.5228 0 38V10Z" fill="#006EE9"/>
<path d="M29.1158 16C30.2333 16 31.3083 16.4417 32.0992 17.2342C32.8908 18.025 33.3333 19.0917 33.3333 20.2083V26.7917C33.3333 29.1167 31.4417 31 29.1158 31H20.8833C18.5575 31 16.6667 29.1167 16.6667 26.7917V20.2083C16.6667 17.8833 18.5492 16 20.8833 16H29.1158ZM30.0583 20.3333C29.8833 20.3242 29.7167 20.3833 29.5908 20.5L25.8333 23.5C25.35 23.9008 24.6575 23.9008 24.1667 23.5L20.4167 20.5C20.1575 20.3083 19.7992 20.3333 19.5833 20.5583C19.3583 20.7833 19.3333 21.1417 19.5242 21.3917L19.6333 21.5L23.425 24.4583C23.8917 24.825 24.4575 25.025 25.05 25.025C25.6408 25.025 26.2167 24.825 26.6825 24.4583L30.4417 21.45L30.5083 21.3833C30.7075 21.1417 30.7075 20.7917 30.4992 20.55C30.3833 20.4258 30.2242 20.35 30.0583 20.3333Z" fill="white"/>
</svg>
