<svg width="50" height="48" viewBox="0 0 50 48" fill="none" xmlns="http://www.w3.org/2000/svg">
<path d="M0 10C0 4.47715 4.47715 0 10 0H50V48H10C4.47715 48 0 43.5228 0 38V10Z" fill="#006EE9"/>
<path d="M25.05 25.5631C27.8701 25.5631 30.25 26.0213 30.25 27.7893C30.25 29.558 27.8545 30 25.05 30C22.2305 30 19.85 29.5417 19.85 27.7737C19.85 26.0051 22.2455 25.5631 25.05 25.5631ZM25.05 17C26.9604 17 28.4911 18.5301 28.4911 20.4392C28.4911 22.3483 26.9604 23.879 25.05 23.879C23.1402 23.879 21.6089 22.3483 21.6089 20.4392C21.6089 18.5301 23.1402 17 25.05 17Z" fill="white"/>
</svg>
